<svg xmlns="http://www.w3.org/2000/svg" version="1.1" xmlns:xlink="http://www.w3.org/1999/xlink" width="2000" height="569" viewBox="0 0 2000 569"><svg xml:space="preserve" width="2000" height="569" data-version="2" data-id="lg_rqhqmloPL3cIuZpXdn" viewBox="0 0 504 569" x="0" y="0"><rect width="100%" height="100%" fill="transparent"></rect><path fill="#eeff01" d="M4.9 387.535h24.8q18.38 0 26.86 7.18 8.47 7.18 8.47 20.55 0 6.04-1.98 11.47-1.98 5.42-6.39 9.54-4.42 4.13-11.6 6.5-7.17 2.37-17.56 2.37H15.94v37.34H4.9zm23.77 9.42H15.94v38.7h10.32q9.09 0 15.17-1.94 6.07-1.95 9.12-6.34 3.05-4.38 3.05-11.65 0-9.48-6.04-14.13-6.04-4.64-18.89-4.64m128.19-9.42v94.95h-11.04v-44.75H95.94v44.75H84.9v-94.95h11.04v40.46h49.88v-40.46zm108.45 47.35q0 10.97-2.79 19.97-2.79 8.99-8.28 15.45-5.49 6.46-13.61 9.97-8.11 3.51-18.83 3.51-11.04 0-19.25-3.51-8.22-3.51-13.64-10-5.42-6.5-8.12-15.52-2.69-9.03-2.69-20 0-14.55 4.8-25.53 4.81-10.97 14.58-17.08 9.77-6.1 24.52-6.1 14.09 0 23.73 6.04 9.65 6.04 14.61 16.98 4.97 10.94 4.97 25.82m-75.59 0q0 12.07 3.44 20.91 3.44 8.83 10.56 13.63 7.11 4.81 18.08 4.81 11.04 0 18.09-4.81 7.04-4.8 10.42-13.63 3.38-8.84 3.38-20.91 0-18.38-7.7-28.74-7.69-10.36-23.99-10.36-11.04 0-18.19 4.74-7.14 4.74-10.62 13.48-3.47 8.73-3.47 20.88m149.56 37.86v9.74h-52.86v-94.95h52.86v9.74h-41.82v30.72h39.42v9.61h-39.42v35.14zm21.04 9.74v-94.95h26.89q17.79 0 26.75 5.33 8.96 5.32 8.96 18.12 0 5.52-2.11 9.9-2.11 4.38-6.13 7.24-4.03 2.86-9.94 3.96v.65q6.24.98 11.04 3.57 4.81 2.6 7.53 7.28 2.73 4.67 2.73 11.88 0 8.77-4.06 14.81-4.06 6.04-11.46 9.12-7.4 3.09-17.53 3.09zm11.04-85.53v31.3h18.18q12.41 0 17.18-4.09 4.78-4.09 4.78-11.95 0-8.12-5.69-11.69-5.68-3.57-18.08-3.57zm18.77 40.59h-18.77v35.52h19.74q12.67 0 17.93-4.97 5.26-4.96 5.26-13.41 0-5.39-2.37-9.22-2.37-3.83-7.67-5.88-5.29-2.04-14.12-2.04m108.97 35.2v9.74h-52.86v-94.95h52.86v9.74h-41.82v30.72h39.42v9.61h-39.42v35.14zm-415.57 78.21H72.91q-.83 0-.83-.59 0-.65 1.18-.82l1.18-.18q1.3-.18 1.8-.62t.74-1.68l8.02-34.69q.3-1.24 0-1.65-.29-.42-1.47-.65l-1.18-.24q-.77-.18-.77-.65 0-.71 1.06-.71h10.62q.83 0 .83.65t-1.07.77l-1.41.18q-1.3.17-1.77.65-.47.47-.77 1.71l-3.42 14.81q-.18.82.65.82h11.68q.83 0 1-.82l3.43-14.81q.29-1.24 0-1.71-.3-.48-1.48-.65l-1.3-.18q-.82-.06-.82-.71 0-.71 1.12-.71h10.62q.82 0 .82.59 0 .65-1.18.83l-1.18.18q-1.29.17-1.77.62-.47.44-.76 1.68l-8.03 34.69q-.23 1.24.03 1.65.27.41 1.45.65l1.18.24q.76.17.76.65 0 .7-1.06.7H90.19q-.82 0-.82-.65 0-.64 1.06-.76l1.41-.18q1.3-.18 1.8-.65.51-.47.74-1.71l3.78-16.34q.17-.83-.59-.83H85.89q-.89 0-1.07.83l-3.77 16.34q-.24 1.24.03 1.71.26.47 1.44.65l1.3.18q.83.06.83.71 0 .7-1.12.7m30.44.53q-3.13 0-5.02-2.44-1.88-2.45-1.88-6.94 0-3.89 1.38-7.73 1.39-3.83 3.63-6.96 2.24-3.12 4.93-5.01 2.68-1.89 5.22-1.89 2.77 0 3.98 1.33 1.21 1.32 1.21 3.57 0 2.65-1.86 5.28-1.86 2.62-5.19 4.69-3.33 2.06-7.82 3.07-1.29.29-1.35 1.47-.06.41-.06.86v.85q0 3.36 1.15 5.08 1.15 1.71 3.15 1.71 2.25 0 4.34-2.07 2.1-2.06 3.51-5.84.18-.53.71-.53.35 0 .44.29.09.3-.03.71-1.89 5.19-4.57 7.85-2.68 2.65-5.87 2.65m-2.18-15.28q-.12.42.14.68.27.27.68.15 3.66-1 6.14-3.04 2.48-2.03 3.75-4.57 1.26-2.54 1.26-4.96 0-2.48-1.94-2.48-1.71 0-3.72 2.01-2.01 2.01-3.72 5.25-1.71 3.25-2.59 6.96m20.35 15.28q-2.12 0-3.3-1.82-1.18-1.83-1.18-5.37 0-3.37.94-6.76.95-3.39 2.6-6.46 1.65-3.07 3.74-5.43 2.1-2.36 4.43-3.74 2.33-1.39 4.63-1.39 1.12 0 2.12.44 1.01.44 1.66 1.39.35.53.7.53.36 0 .71-.53.65-.95 1.06-1.21.42-.27.77-.27.77 0 .59.83l-5.25 22.6q-.88 3.83 1.18 3.83 1.36 0 2.45-1.83t2.21-5.66q.18-.65.77-.65.41 0 .53.35.12.36 0 .83-1.12 5.55-3.01 7.94-1.89 2.38-4.54 2.38-2.3 0-3.28-1.94-.97-1.95-.2-5.31l.76-3.25q.12-.41-.14-.47-.27-.06-.45.3-3.24 5.95-5.75 8.31-2.51 2.36-4.75 2.36m1.48-3q1.41 0 3.12-1.72 1.71-1.71 3.4-4.42 1.68-2.71 3.09-5.84 1.42-3.13 2.28-6.02.85-2.89.85-4.9 0-3.6-2.54-3.6-1.53 0-3.24 1.39-1.71 1.39-3.28 3.75-1.56 2.36-2.83 5.34t-2.03 6.19q-.77 3.22-.77 6.29 0 2.06.5 2.8.5.74 1.45.74m25.6 3.06q-1.94 0-2.77-1.44-.83-1.45-.06-4.75l7.49-32.16q.3-1.06.03-1.47-.26-.41-1.09-.47l-1.77-.18q-.88-.06-.77-.77.12-.53.83-.65 2.12-.35 3.78-.85 1.65-.5 2.65-1.33.47-.35.89-.35.7 0 .53.88l-8.73 37.41q-.3 1.3-.09 2.03.2.74 1.09.74 1.06 0 2.33-1.56 1.27-1.57 2.86-5.93.24-.77.83-.77.88 0 .47 1.06-1.24 4.01-2.74 6.35-1.51 2.33-2.98 3.27-1.48.94-2.78.94m15.81-.06q-2 0-3.12-1.59t-.36-5.13l4.9-21.36q.18-.88-.71-.88h-2.24q-.83 0-.83-.77 0-.41.3-.65.29-.24.71-.24h2.12q1.36 0 1.59-1.24l1.42-6.31q.18-.65.83-.65h2.42q.82 0 .64.77l-1.47 6.55q-.18.88.71.88h3.36q1 0 1 .77 0 .89-1.24.89h-3.18q-1.3 0-1.59 1.23l-4.96 21.6q-.3 1.3.09 2.03.38.74 1.33.74 1.35 0 2.5-1.53 1.15-1.54 2.45-5.84.24-.77.77-.77.41 0 .53.35.12.36-.18 1.3-1.12 4.01-2.45 6.14-1.32 2.12-2.68 2.92-1.36.79-2.66.79m29.03 0q-2.12 0-3.18-1.77-1.07-1.77-.12-5.48l4.54-17.11q.65-2.3.21-3.19-.44-.88-1.27-.88-1.3 0-2.92 1.62-1.62 1.62-3.36 4.42-1.74 2.81-3.37 6.32-1.62 3.51-2.98 7.37-1.35 3.87-2.18 7.52-.18.65-.83.65h-2.47q-.83 0-.65-.76l8.61-37q.3-1.06.03-1.47-.26-.41-1.09-.47l-1.77-.18q-.89-.06-.77-.77.12-.53.83-.65 2.12-.35 3.77-.85 1.66-.5 2.66-1.33.47-.35.88-.35.71 0 .54.88l-5.79 25.08q-.06.41.18.47t.41-.3q2.36-4.83 4.49-7.61 2.12-2.77 3.98-3.95 1.86-1.18 3.39-1.18 2.19 0 3.19 1.77t0 5.43l-4.49 17.11q-.41 1.65-.05 2.48.35.82 1.29.82 1.18 0 2.3-1.56 1.13-1.57 2.42-5.93.18-.65.77-.65.47 0 .56.35.09.36-.03.83-1.12 4.01-2.42 6.28-1.3 2.27-2.62 3.16-1.33.88-2.69.88"></path><path fill="#eeff01" d="M211.56 563.645q-2.25 0-3.49-1.15-1.23-1.15-1.23-2.8 0-1.24.64-1.86.65-.62 1.42-.62 1.12 0 1.59.59.48.59.71 1.38.24.8.74 1.39.5.59 1.62.59 2.18 0 4.31-1.74 2.12-1.74 3.48-4.78 1.36-3.04 1.18-6.81l-.89-21.18q-.05-1.54-.53-2.16-.47-.62-1.18-.62-1.29 0-2.47 1.57-1.18 1.56-1.95 5.93-.18.76-.77.76-.82 0-.65-1.06.71-4.07 1.98-6.37t2.71-3.25q1.45-.94 2.69-.94 1.83 0 2.89 1.27t1.18 4.33l.82 22.66q0 .41.27.5.27.09.5-.26 2.07-2.89 3.75-5.99 1.68-3.1 2.68-6.11 1.01-3.01 1.01-5.54 0-2.48-.54-3.93-.53-1.44-1.09-2.45-.56-1-.56-2.18 0-2.3 2.01-2.3 2.83 0 2.83 6.25 0 3.43-1.18 7.47-1.18 4.04-3.21 8.2-2.04 4.16-4.67 7.93-2.62 3.78-5.48 6.79-2.86 3.01-5.73 4.75-2.86 1.74-5.39 1.74m49.44-12.16q-3.6 0-6.32-1.53-2.71-1.53-4.21-4.25-1.51-2.71-1.51-6.31 0-3.48 1.39-6.49 1.38-3.01 3.77-5.19 2.39-2.19 5.4-3.13-1.77-2.3-1.77-5.78 0-3.07 1.39-5.55t3.78-3.92q2.38-1.45 5.33-1.45 1.89 0 3.63.62t2.86 1.68q.83.77.59 1.95l-1.65 8.62q-.17.88-.82.88-.71 0-.77-1l-.06-1.24q-.24-4.9-1.36-6.93-1.12-2.04-3.65-2.04-2.13 0-3.81 1.12-1.68 1.12-2.68 3.07-1.01 1.95-1.01 4.42 0 3.49 1.89 5.14.89-.12 1.77-.12 3.13 0 3.13 1.53 0 1.42-2.24 1.42-1.83 0-3.37-1.18-7.49 2.3-7.49 12.27 0 5.43 2.36 8.47 2.36 3.04 6.49 3.04 2.95 0 5.34-1.48 2.39-1.47 3.8-3.92 1.42-2.45 1.42-5.46 0-4.6-4.37-4.6-1.71 0-2.68.68-.97.68-.97 1.68 0 .88.59 1.18.59.29 1.35.47.77.18 1.36.62.59.44.59 1.62 0 1.06-.77 1.68-.76.62-2 .62-1.6 0-2.54-1.18t-.94-3.12q0-2.19 1.29-3.78 1.3-1.59 3.52-2.3 2.21-.71 4.86-.24l1.83.3q3.84.59 3.84-.95 0-.7-.65-1-.65-.29-1.48-.56-.82-.26-1.47-.77-.65-.5-.65-1.56 0-1 .71-1.65.7-.65 2-.65 1.71 0 2.66 1.21.94 1.21.94 3.21 0 2.54-1.59 4.08-1.59 1.53-4.07 1.35.41 1.36.41 3.25 0 3.77-1.74 6.75t-4.75 4.69q-3.01 1.71-6.9 1.71m37.17-.53h-10.62q-.83 0-.83-.59 0-.65 1.18-.82l1.18-.18q1.3-.18 1.8-.62t.74-1.68l8.02-34.69q.3-1.24 0-1.65-.29-.42-1.47-.65l-1.18-.24q-.77-.18-.77-.65 0-.71 1.06-.71h10.62q.83 0 .83.65t-1.06.77l-1.42.18q-1.3.17-1.77.65-.47.47-.77 1.71l-3.42 14.81q-.18.82.65.82h11.68q.83 0 1.01-.82l3.42-14.81q.29-1.24 0-1.71-.3-.48-1.48-.65l-1.3-.18q-.82-.06-.82-.71 0-.71 1.12-.71h10.62q.83 0 .83.59 0 .65-1.18.83l-1.18.18q-1.3.17-1.77.62-.48.44-.77 1.68l-8.03 34.69q-.23 1.24.03 1.65.27.41 1.45.65l1.18.24q.77.17.77.65 0 .7-1.07.7h-10.62q-.82 0-.82-.65 0-.64 1.06-.76l1.42-.18q1.29-.18 1.8-.65.5-.47.73-1.71l3.78-16.34q.18-.83-.59-.83h-11.68q-.89 0-1.06.83l-3.78 16.34q-.24 1.24.03 1.71.26.47 1.44.65l1.3.18q.83.06.83.71 0 .7-1.12.7m28.08.53q-2.12 0-3.3-1.82-1.18-1.83-1.18-5.37 0-3.37.94-6.76.95-3.39 2.6-6.46 1.65-3.07 3.74-5.43 2.1-2.36 4.43-3.74 2.33-1.39 4.63-1.39 1.12 0 2.12.44 1.01.44 1.66 1.39.35.53.7.53.36 0 .71-.53.65-.95 1.06-1.21.42-.27.77-.27.77 0 .59.83l-5.25 22.6q-.88 3.83 1.18 3.83 1.36 0 2.45-1.83t2.21-5.66q.18-.65.77-.65.41 0 .53.35.12.36 0 .83-1.12 5.55-3.01 7.94-1.89 2.38-4.54 2.38-2.3 0-3.28-1.94-.97-1.95-.2-5.31l.76-3.25q.12-.41-.14-.47-.27-.06-.45.3-3.24 5.95-5.75 8.31-2.51 2.36-4.75 2.36m1.48-3q1.41 0 3.12-1.72 1.71-1.71 3.4-4.42 1.68-2.71 3.09-5.84 1.42-3.13 2.28-6.02.85-2.89.85-4.9 0-3.6-2.54-3.6-1.53 0-3.24 1.39-1.71 1.39-3.28 3.75-1.56 2.36-2.83 5.34t-2.03 6.19q-.77 3.22-.77 6.29 0 2.06.5 2.8.5.74 1.45.74m27.37 14.57h-10.62q-.76 0-.76-.65 0-.59.94-.71l.83-.12q1.18-.17 1.74-.67.56-.51.85-1.8l7.85-33.87q.12-.47-.15-.74-.26-.26-.74.03-.59.3-1.12.62-.53.33-1.06.68-.53.35-.88.21-.36-.15-.36-.56 0-.42.59-.83 1.65-1.12 3.42-1.95 1.01-.47 1.24-1.53l.77-3.36q.29-1.24 1.53-1.24h1.07q.7 0 1.06.41.35.41.17 1.18l-.41 1.71q-.18 1 .77.83 1.36-.18 2.59-.18 4.37 0 7.14 2.48 2.78 2.48 2.78 7.61 0 4.01-1.48 7.76-1.47 3.74-3.89 6.69t-5.31 4.69q-2.89 1.74-5.78 1.74-1.6 0-3.01-.64-.89-.42-1.07.47l-1.77 7.79q-.29 1.29.03 1.71.33.41 1.45.59l1.53.23q1.07.18 1.07.71 0 .71-1.01.71m5.02-38.94-4.66 20.06q-1.07 5.84 2.53 5.84 2.07 0 4.19-1.74 2.13-1.74 3.96-4.66 1.82-2.92 2.95-6.58 1.12-3.66 1.12-7.49 0-3.96-1.71-5.7-1.72-1.74-5.02-1.74-2.95 0-3.36 2.01m21.53 38.94h-10.62q-.76 0-.76-.65 0-.59.94-.71l.83-.12q1.18-.17 1.74-.67.56-.51.85-1.8l7.85-33.87q.12-.47-.15-.74-.26-.26-.74.03-.59.3-1.12.62-.53.33-1.06.68-.53.35-.88.21-.36-.15-.36-.56 0-.42.59-.83 1.65-1.12 3.42-1.95 1.01-.47 1.24-1.53l.77-3.36q.29-1.24 1.53-1.24h1.07q.7 0 1.06.41.35.41.17 1.18l-.41 1.71q-.18 1 .77.83 1.36-.18 2.59-.18 4.37 0 7.14 2.48 2.78 2.48 2.78 7.61 0 4.01-1.48 7.76-1.47 3.74-3.89 6.69t-5.31 4.69q-2.89 1.74-5.78 1.74-1.6 0-3.01-.64-.89-.42-1.07.47l-1.77 7.79q-.29 1.29.03 1.71.33.41 1.45.59l1.53.23q1.07.18 1.07.71 0 .71-1.01.71m5.02-38.94-4.66 20.06q-1.07 5.84 2.53 5.84 2.07 0 4.19-1.74 2.13-1.74 3.96-4.66 1.82-2.92 2.95-6.58 1.12-3.66 1.12-7.49 0-3.96-1.71-5.7-1.72-1.74-5.02-1.74-2.95 0-3.36 2.01m13.8 39.53q-2.24 0-3.48-1.15-1.24-1.15-1.24-2.8 0-1.24.65-1.86.65-.62 1.42-.62 1.12 0 1.59.59t.71 1.38q.24.8.74 1.39.5.59 1.62.59 2.18 0 4.31-1.74 2.12-1.74 3.48-4.78 1.35-3.04 1.18-6.81l-.89-21.18q-.06-1.54-.53-2.16-.47-.62-1.18-.62-1.3 0-2.48 1.57-1.18 1.56-1.94 5.93-.18.76-.77.76-.83 0-.65-1.06.71-4.07 1.98-6.37t2.71-3.25q1.45-.94 2.69-.94 1.82 0 2.89 1.27 1.06 1.27 1.18 4.33l.82 22.66q0 .41.27.5.26.09.5-.26 2.06-2.89 3.75-5.99 1.68-3.1 2.68-6.11 1-3.01 1-5.54 0-2.48-.53-3.93-.53-1.44-1.09-2.45-.56-1-.56-2.18 0-2.3 2.01-2.3 2.83 0 2.83 6.25 0 3.43-1.18 7.47-1.18 4.04-3.22 8.2-2.03 4.16-4.66 7.93-2.62 3.78-5.48 6.79-2.87 3.01-5.73 4.75-2.86 1.74-5.4 1.74"></path><circle r="95.431" fill="#282a36" transform="translate(249.783 167.299)scale(1.6881)"></circle><path fill="#fff7c9" fill-rule="evenodd" d="m330.616 120.63-41.874 66.04.208-78.332zm-80.624-47.917 36.25 69.374-67.707-39.374zm37.5 68.957v-33.332l-14.583 4.583zm42.5 72.708-78.333-3.125 67.916-39.166zM290.2 187.503l28.541-16.666-11.25-10.209zm-42.5 72.707-35.832-69.374 67.499 39.583zm3.75-47.916 28.542 16.667 3.333-14.792zm-84.165-.416 42.5-65.833-.834 78.332zm43.333-20.625-.208 33.124 14.583-4.583zm-41.458-73.124 78.124 3.958-68.124 38.333zm39.583 27.291-28.958 16.25 11.25 10.417zm37.916-24.583-28.541-16.874-3.333 15z"></path></svg></svg>